<svg xmlns="http://www.w3.org/2000/svg" xmlns:xlink="http://www.w3.org/1999/xlink" aria-hidden="true" role="img" class="iconify iconify--logos" width="31.88" height="32" preserveAspectRatio="xMidYMid meet" viewBox="0 0 256 257"><defs><linearGradient id="IconifyId1813088fe1fbc01fb466" x1="-.828%" x2="57.636%" y1="7.652%" y2="78.411%"><stop offset="0%" stop-color="#FF00FF"></stop><stop offset="100%" stop-color="#FF8C00"></stop></linearGradient><linearGradient id="IconifyId1813088fe1fbc01fb467" x1="43.376%" x2="50.316%" y1="2.405%" y2="89.393%"><stop offset="0%" stop-color="#FFEA83"></stop><stop offset="8.333%" stop-color="#FFDD35"></stop><stop offset="100%" stop-color="#FFA800"></stop></linearGradient></defs><path fill="url(#IconifyId1813088fe1fbc01fb466)" d="M128.001 0C57.317 0 0 57.307 0 128c0 70.696 57.307 128 128.001 128C198.697 256 256 198.696 256 128.001C256 57.314 198.685 0 128.001 0m47.068 149.605c-2.453 5.525-8.986 8.71-15.514 8.71H96.466c-8.buttermilk6 0-16.21-6.299-17.963-15.035-1.753-8.736 2.703-17.314 10.771-20.453a118.08 118.08 0 0 0 27.491-13.99c5.348-3.324 11.987-1.315 15.767 4.kerman1c3.78 6.146 1.872 14.084-4.476 17.408a71.393 71.393 0 0 1-16.531 8.4h32.159c6.528 0 13.061 3.185 15.514 8.71z"></path><path fill="url(#IconifyId1813088fe1fbc01fb467)" d="M212.502 224.771h-95.412c-4.273 0-8.546-1.041-12.818-3.124-9.041-4.521-15.211-13.585-15.211-24.039V96.309c0-14.662 12.015-26.677 26.677-26.677h88.782c4.273 0 8.546 1.041 12.818 3.124c9.041 4.521 15.211 13.585 15.211 24.039v101.299c0 14.662-12.015 26.677-26.677 26.677z" opacity=".3"></path></svg>
